<svg xmlns="http://www.w3.org/2000/svg" xmlns:xlink="http://www.w3.org/1999/xlink" id="Capa_1" x="0px" y="0px" viewBox="0 0 511.89 511.89" style="enable-background:new 0 0 511.89 511.89;" xml:space="preserve">
<g>
	<g>
		<path d="M244.182,127.976h-0.086c-2.202,0-3.952,1.789-3.952,3.999c0,2.21,1.828,3.999,4.038,3.999    c2.202,0,3.999-1.789,3.999-3.999C248.181,129.765,246.384,127.976,244.182,127.976z"/>
	</g>
</g>
<g>
	<g>
		<path d="M203.95,95.984c-2.21,0-3.999,1.789-3.999,3.999v267.935H7.998V79.987h171.958c2.21,0,3.999-1.789,3.999-3.999    c0-2.21-1.789-3.999-3.999-3.999H3.999C1.789,71.989,0,73.778,0,75.989v295.928c0,2.21,1.789,3.999,3.999,3.999H203.95    c2.21,0,3.999-1.789,3.999-3.999V99.983C207.949,97.773,206.16,95.984,203.95,95.984z"/>
	</g>
</g>
<g>
	<g>
		<path d="M355.913,247.947H235.942c-2.21,0-3.999,1.789-3.999,3.999v119.971c0,2.21,1.789,3.999,3.999,3.999h119.971    c2.21,0,3.999-1.789,3.999-3.999V251.945C359.912,249.736,358.123,247.947,355.913,247.947z M351.914,367.917H239.941V255.945    h111.973V367.917z"/>
	</g>
</g>
<g>
	<g>
		<path d="M203.95,399.909H3.999c-2.21,0-3.999,1.789-3.999,3.999v103.975c0,2.21,1.789,3.999,3.999,3.999H203.95    c2.21,0,3.999-1.79,3.999-3.999V403.909C207.949,401.698,206.16,399.909,203.95,399.909z M199.951,503.883H7.998v-95.977h191.953    V503.883z"/>
	</g>
</g>
<g>
	<g>
		<path d="M435.893,399.909H235.942c-2.21,0-3.999,1.789-3.999,3.999v103.975c0,2.21,1.789,3.999,3.999,3.999h199.951    c2.21,0,3.999-1.79,3.999-3.999V403.909C439.892,401.698,438.103,399.909,435.893,399.909z M431.894,503.883H239.941v-95.977    h191.953V503.883z"/>
	</g>
</g>
<g>
	<g>
		<path d="M507.875,0.007H283.93c-2.21,0-3.999,1.789-3.999,3.999v199.951c0,2.21,1.789,3.999,3.999,3.999h223.946    c2.21,0,3.999-1.789,3.998-3.999V4.007C511.874,1.796,510.085,0.007,507.875,0.007z M503.876,199.958H287.929V8.005h215.947    V199.958z"/>
	</g>
</g>
<g>
	<g>
		<path d="M67.983,8.005H3.999C1.789,8.005,0,9.794,0,12.005v31.992c0,2.21,1.789,3.999,3.999,3.999h63.984    c2.211,0,3.999-1.789,3.999-3.999V12.005C71.982,9.794,70.193,8.005,67.983,8.005z M63.984,39.997H7.998V16.004h55.986V39.997z"/>
	</g>
</g>
<g>
	<g>
		<path d="M131.967,8.005H99.975c-2.21,0-3.999,1.789-3.999,3.999v31.992c0,2.21,1.789,3.999,3.999,3.999h31.992    c2.211,0,3.999-1.789,3.999-3.999V12.005C135.966,9.794,134.177,8.005,131.967,8.005z M127.968,39.997h-23.994V16.004h23.994    V39.997z"/>
	</g>
</g>
<g>
	<g>
		<path d="M251.938,8.005h-15.996c-2.21,0-3.999,1.789-3.999,3.999v199.951c0,1.062,0.422,2.077,1.172,2.827l7.998,7.998    c0.781,0.781,1.804,1.172,2.827,1.172c1.024,0,2.047-0.391,2.827-1.172l7.998-7.998c0.75-0.749,1.172-1.765,1.172-2.827V12.005    C255.937,9.794,254.148,8.005,251.938,8.005z M247.939,210.299l-3.999,3.999l-3.999-3.999h0V16.004h7.998V210.299z"/>
	</g>
</g>
<g>
	<g>
		<path d="M206.777,97.156l-23.994-23.994c-1.561-1.562-4.092-1.562-5.654,0c-1.562,1.561-1.562,4.092,0,5.654l23.994,23.994    c0.781,0.781,1.804,1.172,2.827,1.172s2.046-0.391,2.827-1.172C208.339,101.247,208.339,98.718,206.777,97.156z"/>
	</g>
</g>
<g>
	<g>
		<path d="M187.954,103.981h-15.996c-2.21,0-3.999,1.789-3.999,3.999c0,2.21,1.789,3.999,3.999,3.999h15.996    c2.21,0,3.999-1.789,3.999-3.999C191.953,105.77,190.164,103.981,187.954,103.981z"/>
	</g>
</g>
<g>
	<g>
		<path d="M171.958,87.986c-2.21,0-3.999,1.789-3.999,3.999v15.996c0,2.21,1.789,3.999,3.999,3.999s3.999-1.788,3.999-3.999V91.984    C175.957,89.775,174.168,87.986,171.958,87.986z"/>
	</g>
</g>
<g>
	<g>
		<path d="M295.935,279.94c-17.645,0-32,14.348-32,31.992c0,17.644,14.355,31.992,32,31.992c17.645,0,31.992-14.348,31.992-31.992    C327.927,294.287,313.58,279.94,295.935,279.94z M295.935,335.924c-13.231,0-24.002-10.763-24.002-23.994    c0-13.231,10.771-23.994,24.002-23.994c13.232,0,23.994,10.763,23.994,23.994C319.929,325.161,309.166,335.924,295.935,335.924z"/>
	</g>
</g>
<g>
	<g>
		<path d="M298.333,304.729c-1.749-1.32-4.257-0.961-5.6,0.805l-11.997,15.996c-1.32,1.765-0.961,4.272,0.805,5.6    c0.717,0.539,1.561,0.797,2.397,0.797c1.211,0,2.413-0.554,3.203-1.602l11.997-15.996    C300.458,308.563,300.099,306.057,298.333,304.729z"/>
	</g>
</g>
<g>
	<g>
		<path d="M311.135,321.529l-11.997-15.996c-1.335-1.766-3.843-2.125-5.601-0.805c-1.765,1.329-2.124,3.835-0.804,5.6l11.997,15.996    c0.789,1.047,1.991,1.602,3.202,1.602c0.836,0,1.679-0.257,2.398-0.797C312.096,325.8,312.455,323.294,311.135,321.529z"/>
	</g>
</g>
<g>
	<g>
		<path d="M335.925,423.904c-17.645,0-32,14.348-32,31.992c0,17.644,14.355,31.992,32,31.992c17.645,0,31.992-14.348,31.992-31.992    C367.917,438.251,353.57,423.904,335.925,423.904z M335.925,479.889c-13.231,0-24.002-10.763-24.002-23.994    c0-13.231,10.771-23.994,24.002-23.994c13.232,0,23.994,10.763,23.994,23.994C359.919,469.126,349.156,479.889,335.925,479.889z"/>
	</g>
</g>
<g>
	<g>
		<path d="M338.323,448.693c-1.749-1.32-4.257-0.961-5.6,0.805l-11.997,15.996c-1.32,1.765-0.961,4.272,0.805,5.6    c0.717,0.539,1.561,0.797,2.397,0.797c1.211,0,2.413-0.554,3.203-1.602l11.997-15.996    C340.448,452.529,340.089,450.021,338.323,448.693z"/>
	</g>
</g>
<g>
	<g>
		<path d="M351.126,465.495l-11.997-15.996c-1.335-1.774-3.843-2.125-5.601-0.805c-1.765,1.329-2.124,3.835-0.804,5.6l11.997,15.996    c0.789,1.047,1.991,1.602,3.202,1.602c0.835,0,1.678-0.258,2.398-0.797C352.087,469.766,352.446,467.26,351.126,465.495z"/>
	</g>
</g>
<g>
	<g>
		<path d="M395.911,55.994c-17.645,0-32,14.347-32,31.992c0,17.644,14.355,31.992,32,31.992c17.643,0,31.992-14.348,31.992-31.992    C427.903,70.341,413.555,55.994,395.911,55.994z M395.911,111.979c-13.231,0-24.002-10.763-24.002-23.994    c0-13.231,10.771-23.994,24.002-23.994c13.231,0,23.994,10.763,23.994,23.994C419.905,101.216,409.142,111.979,395.911,111.979z"/>
	</g>
</g>
<g>
	<g>
		<path d="M398.309,80.785c-1.749-1.313-4.264-0.953-5.6,0.804l-11.997,15.996c-1.32,1.765-0.961,4.272,0.804,5.6    c0.718,0.539,1.562,0.797,2.398,0.797c1.211,0,2.413-0.555,3.203-1.601l11.997-15.996    C400.434,84.619,400.075,82.113,398.309,80.785z"/>
	</g>
</g>
<g>
	<g>
		<path d="M411.111,97.583l-11.997-15.996c-1.336-1.765-3.843-2.124-5.6-0.804c-1.766,1.328-2.125,3.835-0.805,5.6l11.997,15.996    c0.788,1.047,1.991,1.602,3.202,1.602c0.836,0,1.68-0.258,2.398-0.798C412.072,101.856,412.431,99.348,411.111,97.583z"/>
	</g>
</g>
<g>
	<g>
		<path d="M43.989,111.979c-6.616,0-11.997,5.381-11.997,11.997c0,6.615,5.381,11.997,11.997,11.997    c6.615,0,11.997-5.382,11.997-11.997C55.986,117.361,50.604,111.979,43.989,111.979z M43.989,127.976    c-2.203,0-3.999-1.796-3.999-3.999s1.796-3.999,3.999-3.999s3.999,1.796,3.999,3.999S46.192,127.976,43.989,127.976z"/>
	</g>
</g>
<g>
	<g>
		<path d="M115.971,111.979H67.983c-2.21,0-3.999,1.789-3.999,3.999s1.789,3.999,3.999,3.999h47.988    c2.211,0,3.999-1.789,3.999-3.999S118.181,111.979,115.971,111.979z"/>
	</g>
</g>
<g>
	<g>
		<path d="M91.977,127.976H67.983c-2.21,0-3.999,1.789-3.999,3.999c0,2.21,1.789,3.999,3.999,3.999h23.994    c2.211,0,3.999-1.789,3.999-3.999C95.976,129.765,94.187,127.976,91.977,127.976z"/>
	</g>
</g>
<g>
	<g>
		<path d="M171.958,183.963H35.991c-2.21,0-3.999,1.789-3.999,3.999c0,2.21,1.789,3.999,3.999,3.999h135.967    c2.21,0,3.999-1.789,3.999-3.999C175.957,185.752,174.168,183.963,171.958,183.963z"/>
	</g>
</g>
<g>
	<g>
		<path d="M171.958,207.957H35.991c-2.21,0-3.999,1.789-3.999,3.999c0,2.21,1.789,3.999,3.999,3.999h135.967    c2.21,0,3.999-1.789,3.999-3.999C175.957,209.746,174.168,207.957,171.958,207.957z"/>
	</g>
</g>
<g>
	<g>
		<path d="M171.958,231.95H35.991c-2.21,0-3.999,1.789-3.999,3.999c0,2.21,1.789,3.999,3.999,3.999h135.967    c2.21,0,3.999-1.789,3.999-3.999C175.957,233.739,174.168,231.95,171.958,231.95z"/>
	</g>
</g>
<g>
	<g>
		<path d="M171.958,255.945H35.991c-2.211,0-3.999,1.789-3.999,3.999c0,2.21,1.789,3.999,3.999,3.999h135.967    c2.21,0,3.999-1.789,3.999-3.999C175.957,257.734,174.168,255.945,171.958,255.945z"/>
	</g>
</g>
<g>
	<g>
		<path d="M99.975,279.939H35.991c-2.21,0-3.999,1.789-3.999,3.999c0,2.21,1.789,3.999,3.999,3.999h63.984    c2.211,0,3.999-1.789,3.999-3.999C103.974,281.728,102.185,279.939,99.975,279.939z"/>
	</g>
</g>
<g>
	<g>
		<path d="M159.961,311.932c-8.818,0-15.996,7.178-15.996,15.996s7.178,15.996,15.996,15.996s15.996-7.178,15.996-15.996    S168.779,311.932,159.961,311.932z M159.961,335.924c-4.413,0-7.998-3.585-7.998-7.998c0-4.413,3.585-7.998,7.998-7.998    c4.413,0,7.998,3.585,7.998,7.998C167.959,332.339,164.374,335.924,159.961,335.924z"/>
	</g>
</g>
<g>
	<g>
		<path d="M83.979,16.004h-7.998c-2.21,0-3.999,1.789-3.999,3.999c0,2.21,1.789,3.999,3.999,3.999h7.998    c2.211,0,3.999-1.789,3.999-3.999C87.978,17.793,86.189,16.004,83.979,16.004z"/>
	</g>
</g>
<g>
	<g>
		<path d="M83.979,32h-7.998c-2.21,0-3.999,1.789-3.999,3.999c0,2.21,1.789,3.999,3.999,3.999h7.998    c2.211,0,3.999-1.789,3.999-3.999C87.978,33.789,86.189,32,83.979,32z"/>
	</g>
</g>
<g>
	<g>
		<path d="M83.979,16.004c-2.21,0-3.999,1.789-3.999,3.999v15.996c0,2.21,1.789,3.999,3.999,3.999c2.211,0,3.999-1.789,3.999-3.999    V20.002C87.978,17.793,86.189,16.004,83.979,16.004z"/>
	</g>
</g>
<g>
	<g>
		<path d="M35.991,16.004c-6.616,0-11.997,5.381-11.997,11.997c0,6.615,5.381,11.997,11.997,11.997    c6.615,0,11.997-5.382,11.997-11.997C47.988,21.385,42.606,16.004,35.991,16.004z M35.991,32c-2.203,0-3.999-1.796-3.999-3.999    c0-2.203,1.796-3.999,3.999-3.999S39.99,25.798,39.99,28C39.99,30.203,38.194,32,35.991,32z"/>
	</g>
</g>
<g>
	<g>
		<path d="M251.938,39.997h-15.996c-2.21,0-3.999,1.789-3.999,3.999s1.789,3.999,3.999,3.999h15.996    c2.211,0,3.999-1.789,3.999-3.999S254.148,39.997,251.938,39.997z"/>
	</g>
</g>
<g>
	<g>
		<path d="M251.938,24.002h-15.996c-2.21,0-3.999,1.789-3.999,3.999c0,2.21,1.789,3.999,3.999,3.999h15.996    c2.211,0,3.999-1.789,3.999-3.999C255.937,25.791,254.148,24.002,251.938,24.002z"/>
	</g>
</g>
<g>
	<g>
		<path d="M203.95,16.004h-47.988c-2.21,0-3.999,1.789-3.999,3.999v23.994c0,2.21,1.789,3.999,3.999,3.999h47.988    c2.21,0,3.999-1.789,3.999-3.999V20.002C207.949,17.793,206.16,16.004,203.95,16.004z M199.951,39.997h-39.99V24.002h39.99V39.997    z"/>
	</g>
</g>
<g>
	<g>
		<path d="M171.958,16.004c-2.21,0-3.999,1.789-3.999,3.999v23.994c0,2.21,1.789,3.999,3.999,3.999s3.999-1.789,3.999-3.999V20.002    C175.957,17.793,174.168,16.004,171.958,16.004z"/>
	</g>
</g>
<g>
	<g>
		<path d="M187.954,16.004c-2.21,0-3.999,1.789-3.999,3.999v23.994c0,2.21,1.789,3.999,3.999,3.999c2.21,0,3.999-1.789,3.999-3.999    V20.002C191.953,17.793,190.164,16.004,187.954,16.004z"/>
	</g>
</g>
<g>
	<g>
		<path d="M466.846,260.505c-7.334-3.038-15.051-4.577-22.932-4.577c-24.353,0-46.122,14.535-55.455,37.038    c-12.645,30.555,1.921,65.718,32.469,78.387c7.342,3.038,15.059,4.577,22.932,4.577c24.361,0,46.13-14.535,55.455-37.046    C511.96,308.33,497.394,273.167,466.846,260.505z M491.927,335.824c-8.084,19.51-26.954,32.109-48.066,32.109    c-6.818,0-13.505-1.336-19.87-3.968c-26.479-10.974-39.1-41.452-28.142-67.937c8.084-19.503,26.954-32.102,48.066-32.102    c6.826,0,13.512,1.336,19.87,3.969C490.263,278.87,502.885,309.345,491.927,335.824z"/>
	</g>
</g>
<g>
	<g>
		<path d="M454.974,311.336c-1.234-2.96-3.538-5.271-6.49-6.49c-6.007-2.485-13.224,0.539-15.684,6.482    c-1.227,2.96-1.227,6.225,0,9.186c1.226,2.968,3.538,5.271,6.49,6.498c1.469,0.609,3.015,0.914,4.593,0.914    c4.874,0,9.233-2.905,11.091-7.404C456.201,317.562,456.201,314.297,454.974,311.336z M447.585,317.46    c-0.82,1.976-3.139,3.008-5.233,2.164c-0.983-0.414-1.757-1.18-2.163-2.172c-0.406-0.984-0.406-2.07,0-3.054    c0.625-1.499,2.077-2.468,3.702-2.468c0.524,0,1.032,0.102,1.53,0.305c0.984,0.406,1.75,1.18,2.164,2.163    C447.991,315.391,447.991,316.477,447.585,317.46z"/>
	</g>
</g>
<g>
	<g>
		<path d="M466.847,260.505c-2.023-0.852-4.374,0.125-5.226,2.163l-18.37,44.341c-0.844,2.039,0.125,4.382,2.163,5.226    c0.5,0.211,1.015,0.305,1.531,0.305c1.57,0,3.055-0.93,3.695-2.469l18.371-44.34C469.854,263.693,468.886,261.349,466.847,260.505    z"/>
	</g>
</g>
<g>
	<g>
		<path d="M499.316,292.974c-0.844-2.031-3.164-3.015-5.226-2.164l-44.34,18.363c-2.039,0.843-3.008,3.187-2.164,5.225    c0.64,1.539,2.125,2.469,3.694,2.469c0.508,0,1.031-0.094,1.532-0.305l44.341-18.362    C499.191,297.357,500.16,295.013,499.316,292.974z"/>
	</g>
</g>
<g>
	<g>
		<path d="M283.93,199.958c-2.21,0-3.999,1.789-3.999,3.999v15.996c0,2.21,1.789,3.999,3.999,3.999c2.21,0,3.999-1.789,3.999-3.999    v-15.996C287.929,201.747,286.14,199.958,283.93,199.958z"/>
	</g>
</g>
<g>
	<g>
		<path d="M507.891,215.955H283.93c-2.21,0-3.999,1.789-3.999,3.999c0,2.21,1.789,3.999,3.999,3.999h223.961    c2.21,0,3.999-1.789,3.999-3.999C511.89,217.744,510.101,215.955,507.891,215.955z"/>
	</g>
</g>
<g>
	<g>
		<path d="M499.878,199.958c-2.21,0-3.999,1.789-3.999,3.999v15.996c0,2.21,1.789,3.999,3.999,3.999c2.21,0,3.999-1.789,3.999-3.999    v-15.996C503.877,201.747,502.088,199.958,499.878,199.958z"/>
	</g>
</g>
<g>
	<g>
		<path d="M459.888,135.973H331.919c-2.21,0-3.999,1.789-3.999,3.999c0,2.21,1.789,3.999,3.999,3.999h127.968    c2.21,0,4-1.789,4-3.999C463.887,137.762,462.098,135.973,459.888,135.973z"/>
	</g>
</g>
<g>
	<g>
		<path d="M435.893,151.97h-79.98c-2.21,0-3.999,1.789-3.999,3.999c0,2.21,1.789,3.999,3.999,3.999h79.98    c2.21,0,3.999-1.789,3.999-3.999C439.892,153.759,438.103,151.97,435.893,151.97z"/>
	</g>
</g>
<g>
	<g>
		<path d="M27.993,471.891c-6.616,0-11.997,5.381-11.997,11.997c0,6.615,5.381,11.997,11.997,11.997    c6.615,0,11.997-5.381,11.997-11.997C39.99,477.273,34.608,471.891,27.993,471.891z M27.993,487.888    c-2.203,0-3.999-1.797-3.999-3.999c0-2.202,1.796-3.999,3.999-3.999c2.202,0,3.999,1.797,3.999,3.999    C31.992,486.091,30.196,487.888,27.993,487.888z"/>
	</g>
</g>
<g>
	<g>
		<path d="M187.954,471.892H99.975c-2.21,0-3.999,1.789-3.999,3.999v15.996c0,2.21,1.789,3.999,3.999,3.999h87.979    c2.21,0,3.999-1.789,3.999-3.999v-15.996C191.953,473.681,190.164,471.892,187.954,471.892z M183.954,487.888h-79.98v-7.998h79.98    V487.888z"/>
	</g>
</g>
<g>
	<g>
		<path d="M187.954,415.906h-15.996c-2.21,0-3.999,1.789-3.999,3.999v15.996c0,2.21,1.789,3.999,3.999,3.999h15.996    c2.21,0,3.999-1.789,3.999-3.999v-15.996C191.953,417.695,190.164,415.906,187.954,415.906z M183.955,431.901h-7.998v-7.998h7.998    V431.901z"/>
	</g>
</g>
<g>
	<g>
		<path d="M67.983,479.89H51.987c-2.21,0-3.999,1.789-3.999,3.999c0,2.21,1.789,3.999,3.999,3.999h15.996    c2.211,0,3.999-1.789,3.999-3.999C71.982,481.679,70.193,479.89,67.983,479.89z"/>
	</g>
</g>
<g>
	<g>
		<path d="M59.985,415.906h-39.99c-2.21,0-3.999,1.789-3.999,3.999c0,2.21,1.789,3.999,3.999,3.999h39.99    c2.21,0,3.999-1.789,3.999-3.999C63.984,417.695,62.195,415.906,59.985,415.906z"/>
	</g>
</g>
<g>
	<g>
		<path d="M283.93,463.893h-23.994c-2.21,0-3.999,1.789-3.999,3.999c0,2.21,1.789,3.999,3.999,3.999h23.994    c2.21,0,3.999-1.789,3.999-3.999C287.929,465.682,286.14,463.893,283.93,463.893z"/>
	</g>
</g>
<g>
	<g>
		<path d="M283.93,439.9h-23.994c-2.21,0-3.999,1.789-3.999,3.999c0,2.21,1.789,3.999,3.999,3.999h23.994    c2.21,0,3.999-1.789,3.999-3.999C287.929,441.689,286.14,439.9,283.93,439.9z"/>
	</g>
</g>
<g>
	<g>
		<path d="M411.899,463.893h-23.994c-2.21,0-3.999,1.789-3.999,3.999c0,2.21,1.789,3.999,3.999,3.999h23.994    c2.21,0,3.999-1.789,3.999-3.999C415.898,465.682,414.109,463.893,411.899,463.893z"/>
	</g>
</g>
<g>
	<g>
		<path d="M411.899,439.9h-23.994c-2.21,0-3.999,1.789-3.999,3.999c0,2.21,1.789,3.999,3.999,3.999h23.994    c2.21,0,3.999-1.789,3.999-3.999C415.898,441.689,414.109,439.9,411.899,439.9z"/>
	</g>
</g>
<g>
	<g>
		<path d="M499.877,439.901c-2.21,0-3.999,1.789-3.999,3.999v59.985h-23.994v-59.985c0-2.21-1.789-3.999-3.999-3.999    c-2.21,0-3.999,1.789-3.999,3.999v63.984c0,2.21,1.789,3.999,3.999,3.999h31.993c2.21,0,3.999-1.79,3.998-3.999V443.9    C503.876,441.69,502.087,439.901,499.877,439.901z"/>
	</g>
</g>
<g>
	<g>
		<path d="M499.877,399.909h-31.992c-2.21,0-3.999,1.789-3.999,3.999v31.992c0,2.21,1.789,3.999,3.999,3.999h31.993    c2.21,0,3.999-1.789,3.998-3.999v-31.992C503.876,401.698,502.087,399.909,499.877,399.909z M495.878,431.901h-23.994v-23.994    h23.994V431.901z"/>
	</g>
</g>
<g>
	<g>
		<path d="M491.88,431.901h-15.996c-2.21,0-3.999,1.789-3.999,3.999c0,2.21,1.789,3.999,3.999,3.999h15.996    c2.21,0,3.999-1.789,3.999-3.999C495.879,433.69,494.09,431.901,491.88,431.901z"/>
	</g>
</g>
<g>
	<g>
		<path d="M483.882,463.893c-6.616,0-11.997,5.381-11.997,11.997c0,6.615,5.381,11.997,11.997,11.997    c6.615,0,11.997-5.381,11.997-11.997S490.497,463.893,483.882,463.893z M483.882,479.889c-2.202,0-3.999-1.797-3.999-3.999    c0-2.202,1.797-3.999,3.999-3.999c2.202,0,3.999,1.797,3.999,3.999C487.881,478.092,486.084,479.889,483.882,479.889z"/>
	</g>
</g>
<g>
</g>
<g>
</g>
<g>
</g>
<g>
</g>
<g>
</g>
<g>
</g>
<g>
</g>
<g>
</g>
<g>
</g>
<g>
</g>
<g>
</g>
<g>
</g>
<g>
</g>
<g>
</g>
<g>
</g>
</svg>