<svg width="39" height="39" viewBox="0 0 39 39" fill="none" xmlns="http://www.w3.org/2000/svg"><circle class="color-element" cx="19.4395" cy="19.4395" r="19.4395" fill="#03E78B"/><path d="M19.3929 14.9176C17.752 14.7684 16.2602 14.3209 14.7684 13.7242C14.0226 13.4259 13.1275 13.7242 12.8292 14.4701L11.7849 16.2602C8.65222 14.6193 6.11623 11.9341 4.47529 8.95057L6.41458 7.90634C7.16046 7.60799 7.45881 6.71293 7.16046 5.96705C6.56375 4.47529 6.11623 2.83435 5.96705 1.34259C5.96705 0.596704 5.22117 0 4.47529 0H0.745882C0.298353 0 5.69062e-07 0.298352 5.69062e-07 0.745881C5.69062e-07 3.72941 0.596704 6.71293 1.93929 9.3981C3.87858 13.575 7.30964 16.8569 11.3374 18.7962C14.0226 20.1388 17.0061 20.7355 19.9896 20.7355C20.4371 20.7355 20.7355 20.4371 20.7355 19.9896V16.4094C20.7355 15.5143 20.1388 14.9176 19.3929 14.9176Z" transform="translate(9.07179 9.07178)" fill="white"/></svg>