<svg version="1.1" xmlns="http://www.w3.org/2000/svg" xmlns:xlink="http://www.w3.org/1999/xlink" x="0px" y="0px" viewBox="-496.9 507.1 54 54" style="enable-background-color:new -496.9 507.1 54 54;" xml:space="preserve"><style type="text/css">.chaty-sts1{fill:#FFFFFF;}</style><g><circle cx="-469.9" cy="534.1" r="27" fill="#FF6060"/></g><path class="chaty-sts1" d="M-472.6,522.1h5.3c3,0,6,1.2,8.1,3.4c2.1,2.1,3.4,5.1,3.4,8.1c0,6-4.6,11-10.6,11.5v4.4c0,0.4-0.2,0.7-0.5,0.9   c-0.2,0-0.2,0-0.4,0c-0.2,0-0.5-0.2-0.7-0.4l-4.6-5c-3,0-6-1.2-8.1-3.4s-3.4-5.1-3.4-8.1C-484.1,527.2-478.9,522.1-472.6,522.1z   M-462.9,535.3c1.1,0,1.8-0.7,1.8-1.8c0-1.1-0.7-1.8-1.8-1.8c-1.1,0-1.8,0.7-1.8,1.8C-464.6,534.6-463.9,535.3-462.9,535.3z   M-469.9,535.3c1.1,0,1.8-0.7,1.8-1.8c0-1.1-0.7-1.8-1.8-1.8c-1.1,0-1.8,0.7-1.8,1.8C-471.7,534.6-471,535.3-469.9,535.3z   M-477,535.3c1.1,0,1.8-0.7,1.8-1.8c0-1.1-0.7-1.8-1.8-1.8c-1.1,0-1.8,0.7-1.8,1.8C-478.8,534.6-478.1,535.3-477,535.3z"/></svg>